<svg xmlns="http://www.w3.org/2000/svg" xmlns:xlink="http://www.w3.org/1999/xlink"><symbol viewBox="0 0 112.196 112.196" id="facebook_-_Copia_(10)"><circle cx="56.098" cy="56.098" r="56.098" fill="#3b5998"/><path d="M70.201 58.294h-10.01v36.672H45.025V58.294h-7.213V45.406h7.213v-8.34c0-5.964 2.833-15.303 15.301-15.303l11.234.047v12.51h-8.151c-1.337 0-3.217.668-3.217 3.513v7.585h11.334l-1.325 12.876z" fill="#fff"/></symbol><symbol viewBox="0 0 112.196 112.196" id="facebook_-_Copia_(10)_-_Copia"><circle cx="56.098" cy="56.098" r="56.098" fill="#3b5998"/><path d="M70.201 58.294h-10.01v36.672H45.025V58.294h-7.213V45.406h7.213v-8.34c0-5.964 2.833-15.303 15.301-15.303l11.234.047v12.51h-8.151c-1.337 0-3.217.668-3.217 3.513v7.585h11.334l-1.325 12.876z" fill="#fff"/></symbol><symbol viewBox="0 0 112.196 112.196" id="facebook_-_Copia_(11)"><circle cx="56.098" cy="56.098" r="56.098" fill="#3b5998"/><path d="M70.201 58.294h-10.01v36.672H45.025V58.294h-7.213V45.406h7.213v-8.34c0-5.964 2.833-15.303 15.301-15.303l11.234.047v12.51h-8.151c-1.337 0-3.217.668-3.217 3.513v7.585h11.334l-1.325 12.876z" fill="#fff"/></symbol><symbol viewBox="0 0 112.196 112.196" id="facebook_-_Copia_(12)"><circle cx="56.098" cy="56.098" r="56.098" fill="#3b5998"/><path d="M70.201 58.294h-10.01v36.672H45.025V58.294h-7.213V45.406h7.213v-8.34c0-5.964 2.833-15.303 15.301-15.303l11.234.047v12.51h-8.151c-1.337 0-3.217.668-3.217 3.513v7.585h11.334l-1.325 12.876z" fill="#fff"/></symbol><symbol viewBox="0 0 112.196 112.196" id="facebook_-_Copia_(13)"><circle cx="56.098" cy="56.098" r="56.098" fill="#3b5998"/><path d="M70.201 58.294h-10.01v36.672H45.025V58.294h-7.213V45.406h7.213v-8.34c0-5.964 2.833-15.303 15.301-15.303l11.234.047v12.51h-8.151c-1.337 0-3.217.668-3.217 3.513v7.585h11.334l-1.325 12.876z" fill="#fff"/></symbol><symbol viewBox="0 0 112.196 112.196" id="facebook_-_Copia_(14)"><circle cx="56.098" cy="56.098" r="56.098" fill="#3b5998"/><path d="M70.201 58.294h-10.01v36.672H45.025V58.294h-7.213V45.406h7.213v-8.34c0-5.964 2.833-15.303 15.301-15.303l11.234.047v12.51h-8.151c-1.337 0-3.217.668-3.217 3.513v7.585h11.334l-1.325 12.876z" fill="#fff"/></symbol><symbol viewBox="0 0 112.196 112.196" id="facebook_-_Copia_(14)_-_Copia"><circle cx="56.098" cy="56.098" r="56.098" fill="#3b5998"/><path d="M70.201 58.294h-10.01v36.672H45.025V58.294h-7.213V45.406h7.213v-8.34c0-5.964 2.833-15.303 15.301-15.303l11.234.047v12.51h-8.151c-1.337 0-3.217.668-3.217 3.513v7.585h11.334l-1.325 12.876z" fill="#fff"/></symbol><symbol viewBox="0 0 112.196 112.196" id="facebook_-_Copia_(15)_-_Copia"><circle cx="56.098" cy="56.098" r="56.098" fill="#3b5998"/><path d="M70.201 58.294h-10.01v36.672H45.025V58.294h-7.213V45.406h7.213v-8.34c0-5.964 2.833-15.303 15.301-15.303l11.234.047v12.51h-8.151c-1.337 0-3.217.668-3.217 3.513v7.585h11.334l-1.325 12.876z" fill="#fff"/></symbol><symbol viewBox="0 0 112.196 112.196" id="facebook_-_Copia_(16)_-_Copia"><circle cx="56.098" cy="56.098" r="56.098" fill="#3b5998"/><path d="M70.201 58.294h-10.01v36.672H45.025V58.294h-7.213V45.406h7.213v-8.34c0-5.964 2.833-15.303 15.301-15.303l11.234.047v12.51h-8.151c-1.337 0-3.217.668-3.217 3.513v7.585h11.334l-1.325 12.876z" fill="#fff"/></symbol><symbol viewBox="0 0 112.196 112.196" id="facebook_-_Copia_(17)_-_Copia"><circle cx="56.098" cy="56.098" r="56.098" fill="#3b5998"/><path d="M70.201 58.294h-10.01v36.672H45.025V58.294h-7.213V45.406h7.213v-8.34c0-5.964 2.833-15.303 15.301-15.303l11.234.047v12.51h-8.151c-1.337 0-3.217.668-3.217 3.513v7.585h11.334l-1.325 12.876z" fill="#fff"/></symbol><symbol viewBox="0 0 112.196 112.196" id="facebook_-_Copia_(18)_-_Copia"><circle cx="56.098" cy="56.098" r="56.098" fill="#3b5998"/><path d="M70.201 58.294h-10.01v36.672H45.025V58.294h-7.213V45.406h7.213v-8.34c0-5.964 2.833-15.303 15.301-15.303l11.234.047v12.51h-8.151c-1.337 0-3.217.668-3.217 3.513v7.585h11.334l-1.325 12.876z" fill="#fff"/></symbol><symbol viewBox="0 0 112.196 112.196" id="facebook_-_Copia_(19)_-_Copia"><circle cx="56.098" cy="56.098" r="56.098" fill="#3b5998"/><path d="M70.201 58.294h-10.01v36.672H45.025V58.294h-7.213V45.406h7.213v-8.34c0-5.964 2.833-15.303 15.301-15.303l11.234.047v12.51h-8.151c-1.337 0-3.217.668-3.217 3.513v7.585h11.334l-1.325 12.876z" fill="#fff"/></symbol><symbol viewBox="0 0 112.196 112.196" id="facebook_-_Copia_(19)_-_Copia_-_Copia"><circle cx="56.098" cy="56.098" r="56.098" fill="#3b5998"/><path d="M70.201 58.294h-10.01v36.672H45.025V58.294h-7.213V45.406h7.213v-8.34c0-5.964 2.833-15.303 15.301-15.303l11.234.047v12.51h-8.151c-1.337 0-3.217.668-3.217 3.513v7.585h11.334l-1.325 12.876z" fill="#fff"/></symbol><symbol viewBox="0 0 112.196 112.196" id="facebook_-_Copia_(2)"><circle cx="56.098" cy="56.098" r="56.098" fill="#3b5998"/><path d="M70.201 58.294h-10.01v36.672H45.025V58.294h-7.213V45.406h7.213v-8.34c0-5.964 2.833-15.303 15.301-15.303l11.234.047v12.51h-8.151c-1.337 0-3.217.668-3.217 3.513v7.585h11.334l-1.325 12.876z" fill="#fff"/></symbol><symbol viewBox="0 0 112.196 112.196" id="facebook_-_Copia_(20)_-_Copia_-_Copia"><circle cx="56.098" cy="56.098" r="56.098" fill="#3b5998"/><path d="M70.201 58.294h-10.01v36.672H45.025V58.294h-7.213V45.406h7.213v-8.34c0-5.964 2.833-15.303 15.301-15.303l11.234.047v12.51h-8.151c-1.337 0-3.217.668-3.217 3.513v7.585h11.334l-1.325 12.876z" fill="#fff"/></symbol><symbol viewBox="0 0 112.196 112.196" id="facebook_-_Copia_(21)_-_Copia"><circle cx="56.098" cy="56.098" r="56.098" fill="#3b5998"/><path d="M70.201 58.294h-10.01v36.672H45.025V58.294h-7.213V45.406h7.213v-8.34c0-5.964 2.833-15.303 15.301-15.303l11.234.047v12.51h-8.151c-1.337 0-3.217.668-3.217 3.513v7.585h11.334l-1.325 12.876z" fill="#fff"/></symbol><symbol viewBox="0 0 112.196 112.196" id="facebook_-_Copia_(21)_-_Copia_-_Copia"><circle cx="56.098" cy="56.098" r="56.098" fill="#3b5998"/><path d="M70.201 58.294h-10.01v36.672H45.025V58.294h-7.213V45.406h7.213v-8.34c0-5.964 2.833-15.303 15.301-15.303l11.234.047v12.51h-8.151c-1.337 0-3.217.668-3.217 3.513v7.585h11.334l-1.325 12.876z" fill="#fff"/></symbol><symbol viewBox="0 0 112.196 112.196" id="facebook_-_Copia_(22)_-_Copia"><circle cx="56.098" cy="56.098" r="56.098" fill="#3b5998"/><path d="M70.201 58.294h-10.01v36.672H45.025V58.294h-7.213V45.406h7.213v-8.34c0-5.964 2.833-15.303 15.301-15.303l11.234.047v12.51h-8.151c-1.337 0-3.217.668-3.217 3.513v7.585h11.334l-1.325 12.876z" fill="#fff"/></symbol><symbol viewBox="0 0 112.196 112.196" id="facebook_-_Copia_(23)_-_Copia"><circle cx="56.098" cy="56.098" r="56.098" fill="#3b5998"/><path d="M70.201 58.294h-10.01v36.672H45.025V58.294h-7.213V45.406h7.213v-8.34c0-5.964 2.833-15.303 15.301-15.303l11.234.047v12.51h-8.151c-1.337 0-3.217.668-3.217 3.513v7.585h11.334l-1.325 12.876z" fill="#fff"/></symbol><symbol viewBox="0 0 112.196 112.196" id="facebook_-_Copia_(23)_-_Copia_-_Copia"><circle cx="56.098" cy="56.098" r="56.098" fill="#3b5998"/><path d="M70.201 58.294h-10.01v36.672H45.025V58.294h-7.213V45.406h7.213v-8.34c0-5.964 2.833-15.303 15.301-15.303l11.234.047v12.51h-8.151c-1.337 0-3.217.668-3.217 3.513v7.585h11.334l-1.325 12.876z" fill="#fff"/></symbol><symbol viewBox="0 0 112.196 112.196" id="facebook_-_Copia_(24)_-_Copia_-_Copia"><circle cx="56.098" cy="56.098" r="56.098" fill="#3b5998"/><path d="M70.201 58.294h-10.01v36.672H45.025V58.294h-7.213V45.406h7.213v-8.34c0-5.964 2.833-15.303 15.301-15.303l11.234.047v12.51h-8.151c-1.337 0-3.217.668-3.217 3.513v7.585h11.334l-1.325 12.876z" fill="#fff"/></symbol><symbol viewBox="0 0 112.196 112.196" id="facebook_-_Copia_(25)_-_Copia_-_Copia"><circle cx="56.098" cy="56.098" r="56.098" fill="#3b5998"/><path d="M70.201 58.294h-10.01v36.672H45.025V58.294h-7.213V45.406h7.213v-8.34c0-5.964 2.833-15.303 15.301-15.303l11.234.047v12.51h-8.151c-1.337 0-3.217.668-3.217 3.513v7.585h11.334l-1.325 12.876z" fill="#fff"/></symbol><symbol viewBox="0 0 112.196 112.196" id="facebook_-_Copia_(26)_-_Copia_-_Copia"><circle cx="56.098" cy="56.098" r="56.098" fill="#3b5998"/><path d="M70.201 58.294h-10.01v36.672H45.025V58.294h-7.213V45.406h7.213v-8.34c0-5.964 2.833-15.303 15.301-15.303l11.234.047v12.51h-8.151c-1.337 0-3.217.668-3.217 3.513v7.585h11.334l-1.325 12.876z" fill="#fff"/></symbol><symbol viewBox="0 0 112.196 112.196" id="facebook_-_Copia_(27)_-_Copia_-_Copia"><circle cx="56.098" cy="56.098" r="56.098" fill="#3b5998"/><path d="M70.201 58.294h-10.01v36.672H45.025V58.294h-7.213V45.406h7.213v-8.34c0-5.964 2.833-15.303 15.301-15.303l11.234.047v12.51h-8.151c-1.337 0-3.217.668-3.217 3.513v7.585h11.334l-1.325 12.876z" fill="#fff"/></symbol><symbol viewBox="0 0 112.196 112.196" id="facebook_-_Copia_(28)_-_Copia_-_Copia"><circle cx="56.098" cy="56.098" r="56.098" fill="#3b5998"/><path d="M70.201 58.294h-10.01v36.672H45.025V58.294h-7.213V45.406h7.213v-8.34c0-5.964 2.833-15.303 15.301-15.303l11.234.047v12.51h-8.151c-1.337 0-3.217.668-3.217 3.513v7.585h11.334l-1.325 12.876z" fill="#fff"/></symbol><symbol viewBox="0 0 112.196 112.196" id="facebook_-_Copia_(29)_-_Copia_-_Copia"><circle cx="56.098" cy="56.098" r="56.098" fill="#3b5998"/><path d="M70.201 58.294h-10.01v36.672H45.025V58.294h-7.213V45.406h7.213v-8.34c0-5.964 2.833-15.303 15.301-15.303l11.234.047v12.51h-8.151c-1.337 0-3.217.668-3.217 3.513v7.585h11.334l-1.325 12.876z" fill="#fff"/></symbol><symbol viewBox="0 0 112.196 112.196" id="facebook_-_Copia_(3)"><circle cx="56.098" cy="56.098" r="56.098" fill="#3b5998"/><path d="M70.201 58.294h-10.01v36.672H45.025V58.294h-7.213V45.406h7.213v-8.34c0-5.964 2.833-15.303 15.301-15.303l11.234.047v12.51h-8.151c-1.337 0-3.217.668-3.217 3.513v7.585h11.334l-1.325 12.876z" fill="#fff"/></symbol><symbol viewBox="0 0 112.196 112.196" id="facebook_-_Copia_(5)"><circle cx="56.098" cy="56.098" r="56.098" fill="#3b5998"/><path d="M70.201 58.294h-10.01v36.672H45.025V58.294h-7.213V45.406h7.213v-8.34c0-5.964 2.833-15.303 15.301-15.303l11.234.047v12.51h-8.151c-1.337 0-3.217.668-3.217 3.513v7.585h11.334l-1.325 12.876z" fill="#fff"/></symbol><symbol viewBox="0 0 112.196 112.196" id="facebook_-_Copia_(7)"><circle cx="56.098" cy="56.098" r="56.098" fill="#3b5998"/><path d="M70.201 58.294h-10.01v36.672H45.025V58.294h-7.213V45.406h7.213v-8.34c0-5.964 2.833-15.303 15.301-15.303l11.234.047v12.51h-8.151c-1.337 0-3.217.668-3.217 3.513v7.585h11.334l-1.325 12.876z" fill="#fff"/></symbol><symbol viewBox="0 0 112.196 112.196" id="facebook_-_Copia_(9)"><circle cx="56.098" cy="56.098" r="56.098" fill="#3b5998"/><path d="M70.201 58.294h-10.01v36.672H45.025V58.294h-7.213V45.406h7.213v-8.34c0-5.964 2.833-15.303 15.301-15.303l11.234.047v12.51h-8.151c-1.337 0-3.217.668-3.217 3.513v7.585h11.334l-1.325 12.876z" fill="#fff"/></symbol></svg>