<svg xmlns="http://www.w3.org/2000/svg" viewBox="0 0 325.6 325.6">
	<path class="cloud" d="M213.8 223.6h45.8c36.4 0 66-29.6 66-66 0-19.8-8.6-38.1-23.8-50.7.5-3.9.8-7.5.8-11.1 0-49.1-40-89.1-89.1-89.1-29.4 0-57 14.8-73.5 38.9-8.3-4.3-17.5-6.5-26.9-6.5-30.5 0-55.6 23.4-58.5 53.3C23.1 97.9 0 125 0 157.6c0 36.4 29.6 66 66.1 66h62.2m131.3-12.8H66.1c-29.3 0-53.2-23.9-53.2-53.2 0-27.8 20.9-50.5 48.5-52.9l5.9-.8V98c0-25.3 20.6-45.9 45.9-45.9 9.1 0 17.9 2.7 25.4 7.7l5.7 3.8 3.4-5.9c13.6-23.4 38.9-38 65.9-38 42 0 76.2 34.2 76.2 76.2 0 4-.4 8.1-1.2 12.7l-.7 3.9 3.2 2.3c13.8 10.2 21.7 25.7 21.7 42.7 0 29.4-23.9 53.3-53.2 53.3z" fill="#E0E0E0"/>
	<path class="thunder" fill="#FBC02D" d="M185.8 228.6H140l-20.1 38.3h40.8l-26.8 57 75.9-71.2-40.6.1"/>
</svg>