<svg xmlns="http://www.w3.org/2000/svg" viewBox="0 0 206.6 206.6"><linearGradient id="a" gradientUnits="userSpaceOnUse" x1="67.27" y1="189.52" x2="70.688" y2="192.938" gradientTransform="matrix(1 0 0 -1 0 291.8)"><stop offset="0" stop-color="#FFF"/><stop offset="1" stop-color="#323232"/></linearGradient><path fill="url(#a)" d="M83.1 132.3H61.8V61.9l21.3 21.4"/><path d="M103.3 0C46.3 0 0 46.3 0 103.3s46.3 103.3 103.3 103.3 103.3-46.3 103.3-103.3S160.4 0 103.3 0zm0 197.6c-52 0-94.3-42.3-94.3-94.3S51.3 9 103.3 9s94.3 42.3 94.3 94.3-42.3 94.3-94.3 94.3z" fill="#FFF"/><path fill="#FFF" d="M123.5 132.3h21.4V60.7L123.5 82M61.8 90.7l41.7 41.7 15.1-15.1-56.8-56.6"/></svg>